<?xml version="1.0" encoding="UTF-8"?>
<svg width="30px" height="46px" viewBox="0 0 30 46" version="1.1" xmlns="http://www.w3.org/2000/svg" xmlns:xlink="http://www.w3.org/1999/xlink">
    <!-- Generator: Sketch 63.1 (92452) - https://sketch.com -->
    <title>ic_phone_android copy</title>
    <desc>Created with Sketch.</desc>
    <g id="Material-Design-Icons" stroke="none" stroke-width="1" fill="none" fill-rule="evenodd">
        <g id="ic_phone_android-copy" fill="#5B92F7">
            <path d="M23.3333333,0.0833333333 L6.66666667,0.0833333333 C3.20833333,0.0833333333 0.416666667,2.875 0.416666667,6.33333333 L0.416666667,39.6666667 C0.416666667,43.125 3.20833333,45.9166667 6.66666667,45.9166667 L23.3333333,45.9166667 C26.7916667,45.9166667 29.5833333,43.125 29.5833333,39.6666667 L29.5833333,6.33333333 C29.5833333,2.875 26.7916667,0.0833333333 23.3333333,0.0833333333 L23.3333333,0.0833333333 Z M19.1666667,41.75 L10.8333333,41.75 L10.8333333,39.6666667 L19.1666667,39.6666667 L19.1666667,41.75 L19.1666667,41.75 Z M25.9375,35.5 L4.0625,35.5 L4.0625,6.33333333 L25.9375,6.33333333 L25.9375,35.5 L25.9375,35.5 Z" id="Shape"></path>
        </g>
    </g>
</svg>