<?xml version="1.0" encoding="UTF-8"?>
<svg width="42px" height="50px" viewBox="0 0 42 50" version="1.1" xmlns="http://www.w3.org/2000/svg" xmlns:xlink="http://www.w3.org/1999/xlink">
    <!-- Generator: Sketch 63.1 (92452) - https://sketch.com -->
    <title>ic_android copy</title>
    <desc>Created with Sketch.</desc>
    <g id="Material-Design-Icons" stroke="none" stroke-width="1" fill="none" fill-rule="evenodd">
        <g id="ic_android-copy" fill="#5B92F7">
            <path d="M8.5,37.5 C8.5,38.6458333 9.4375,39.5833333 10.5833333,39.5833333 L12.6666667,39.5833333 L12.6666667,46.875 C12.6666667,48.6041667 14.0625,50 15.7916667,50 C17.5208333,50 18.9166667,48.6041667 18.9166667,46.875 L18.9166667,39.5833333 L23.0833333,39.5833333 L23.0833333,46.875 C23.0833333,48.6041667 24.4791667,50 26.2083333,50 C27.9375,50 29.3333333,48.6041667 29.3333333,46.875 L29.3333333,39.5833333 L31.4166667,39.5833333 C32.5625,39.5833333 33.5,38.6458333 33.5,37.5 L33.5,16.6666667 L8.5,16.6666667 L8.5,37.5 L8.5,37.5 Z M3.29166667,16.6666667 C1.5625,16.6666667 0.166666667,18.0625 0.166666667,19.7916667 L0.166666667,34.375 C0.166666667,36.1041667 1.5625,37.5 3.29166667,37.5 C5.02083333,37.5 6.41666667,36.1041667 6.41666667,34.375 L6.41666667,19.7916667 C6.41666667,18.0625 5.02083333,16.6666667 3.29166667,16.6666667 L3.29166667,16.6666667 Z M38.7083333,16.6666667 C36.9791667,16.6666667 35.5833333,18.0625 35.5833333,19.7916667 L35.5833333,34.375 C35.5833333,36.1041667 36.9791667,37.5 38.7083333,37.5 C40.4375,37.5 41.8333333,36.1041667 41.8333333,34.375 L41.8333333,19.7916667 C41.8333333,18.0625 40.4375,16.6666667 38.7083333,16.6666667 L38.7083333,16.6666667 Z M28.3541667,4.5 L31.0625,1.79166667 C31.4791667,1.375 31.4791667,0.729166667 31.0625,0.3125 C30.6458333,-0.104166667 30,-0.104166667 29.5833333,0.3125 L26.5,3.39583333 C24.8541667,2.5625 22.9791667,2.08333333 21,2.08333333 C19,2.08333333 17.125,2.5625 15.4583333,3.39583333 L12.3541667,0.3125 C11.9375,-0.104166667 11.2916667,-0.104166667 10.875,0.3125 C10.4583333,0.729166667 10.4583333,1.375 10.875,1.79166667 L13.6041667,4.52083333 C10.5208333,6.79166667 8.5,10.4375 8.5,14.5833333 L33.5,14.5833333 C33.5,10.4375 31.4791667,6.77083333 28.3541667,4.5 L28.3541667,4.5 Z M16.8333333,10.4166667 L14.75,10.4166667 L14.75,8.33333333 L16.8333333,8.33333333 L16.8333333,10.4166667 L16.8333333,10.4166667 Z M27.25,10.4166667 L25.1666667,10.4166667 L25.1666667,8.33333333 L27.25,8.33333333 L27.25,10.4166667 L27.25,10.4166667 Z" id="Shape"></path>
        </g>
    </g>
</svg>